# xmcd
#
# Track frame offsets:
#  150
#  13342
#  34287
#  57035
#  71035
#  89012
#  114595
#  129325
#  132375
#  155812
#  177472
#  202000
#
# Disc length: 3095 seconds
#
# Revision: 0
# Processed by: cddbd v1.5.1PL2 Copyright (c) Steve Scherf et al.
# Submitted via: AltoMP3_Maker 3.0
#
DISCID=b70c150c
DTITLE=Electric Blues Duo and hr Big Band - Live
DYEAR=1900
DGENRE=
TTITLE0=Out On The Highway
TTITLE1=My Jug And I
TTITLE2=Walkin' Blues
TTITLE3=Promised Land
TTITLE4=Blues In Hoss's Flat
TTITLE5=No Money Down
TTITLE6=Roberta
TTITLE7=Make Mine A Double
TTITLE8=Going Down Slow
TTITLE9=You Gonna Suffer
TTITLE10=Sweet Home Chicago
TTITLE11=Everyday I Have The Blues
EXTD=
EXTT0=
EXTT1=
EXTT2=
EXTT3=
EXTT4=
EXTT5=
EXTT6=
EXTT7=
EXTT8=
EXTT9=
EXTT10=
EXTT11=
PLAYORDER=
